<?xml version="1.0" encoding="UTF-8"?>
<svg xmlns="http://www.w3.org/2000/svg" viewBox="0 0 2000 2000">
  <defs>
    <style>
      .cls-1 {
        fill: #010101;
      }

      .cls-1, .cls-2 {
        stroke-width: 0px;
      }

      .cls-2 {
        fill: #fff;
      }
    </style>
  </defs>
  <g id="Layer_2" data-name="Layer 2">
    <rect class="cls-2" width="2000" height="2000"/>
  </g>
  <g id="Layer_1" data-name="Layer 1">
    <g>
      <path class="cls-1" d="m1291.14,1148.12c-1.11,0-2.03.38-2.76,1.14-.73.76-1.1,1.71-1.1,2.88s.36,2.13,1.1,2.91c.73.78,1.65,1.17,2.76,1.17s2.03-.39,2.76-1.17c.73-.78,1.1-1.75,1.1-2.91s-.37-2.12-1.1-2.88c-.73-.76-1.65-1.14-2.76-1.14Z"/>
      <path class="cls-1" d="m1301.33,1148.12c-1.11,0-2.03.38-2.76,1.14-.73.76-1.1,1.71-1.1,2.88s.36,2.13,1.1,2.91c.73.78,1.65,1.17,2.76,1.17s2.03-.39,2.76-1.17c.73-.78,1.1-1.75,1.1-2.91s-.37-2.12-1.1-2.88c-.73-.76-1.65-1.14-2.76-1.14Z"/>
      <path class="cls-1" d="m1330.2,1148.12c-1.11,0-2.03.38-2.76,1.14-.73.76-1.1,1.71-1.1,2.88s.36,2.13,1.1,2.91c.73.78,1.65,1.17,2.76,1.17s2.03-.39,2.76-1.17c.73-.78,1.1-1.75,1.1-2.91s-.37-2.12-1.1-2.88c-.73-.76-1.65-1.14-2.76-1.14Z"/>
      <path class="cls-1" d="m1320.02,1148.12c-1.11,0-2.03.38-2.76,1.14-.73.76-1.1,1.71-1.1,2.88s.36,2.13,1.1,2.91c.73.78,1.65,1.17,2.76,1.17s2.03-.39,2.76-1.17c.73-.78,1.1-1.75,1.1-2.91s-.37-2.12-1.1-2.88c-.73-.76-1.65-1.14-2.76-1.14Z"/>
      <path class="cls-1" d="m1592.15,1087.33c-.73.76-1.1,1.71-1.1,2.88s.37,2.13,1.1,2.91,1.65,1.17,2.76,1.17,2.03-.39,2.76-1.17c.73-.78,1.09-1.75,1.09-2.91s-.36-2.12-1.09-2.88c-.73-.76-1.65-1.14-2.76-1.14s-2.03.38-2.76,1.14Z"/>
      <path class="cls-1" d="m1602.33,1087.33c-.73.76-1.1,1.71-1.1,2.88s.36,2.13,1.1,2.91c.73.78,1.65,1.17,2.76,1.17s2.03-.39,2.76-1.17c.73-.78,1.1-1.75,1.1-2.91s-.37-2.12-1.1-2.88c-.73-.76-1.65-1.14-2.76-1.14s-2.03.38-2.76,1.14Z"/>
      <path class="cls-1" d="m1634.09,1135.86h-18.53v-30.96c-5.67-2.62-10.88-3.93-15.64-3.93-4.06,0-7.81.92-11.23,2.76s-6.12,4.37-8.1,7.58c-1.98,3.21-2.97,6.82-2.97,10.83,0,5.3,1.79,9.87,5.37,13.72h-248.5c-2.89,0-5.27-.72-7.14-2.17.53-1.66.8-3.74.8-6.25v-23.26h-6.26v23.18c0,3.1-.68,5.29-2.05,6.58s-3.76,1.92-7.18,1.92h-7.06c-2.89,0-5.27-.72-7.14-2.17.53-1.66.8-3.74.8-6.25v-23.26h-6.26v23.18c0,3.1-.68,5.29-2.05,6.58s-3.76,1.92-7.18,1.92h-5.13c-4.06,0-7.09-1.37-9.07-4.09-.43-5.88-1.86-11.17-4.29-15.88-2.43-4.71-5.45-8.39-9.06-11.07-3.61-2.67-7.34-4.01-11.19-4.01-4.17,0-7.43,1.46-9.79,4.37s-4,6.19-4.93,9.82c-.94,3.64-1.72,7.94-2.37,12.92-.05.96-.19,2.06-.4,3.29-2.78,1.34-4.97,3.64-6.58,6.9-1.6,3.26-2.41,7.06-2.41,11.39,0,4.01.75,7.87,2.25,11.59,1.5,3.72,3.5,6.94,6.02,9.66l5.21-3.13c-2.41-2.52-4.28-5.38-5.62-8.59-1.34-3.21-2-6.42-2-9.62,0-2.94.49-5.41,1.48-7.42s2.39-3.36,4.21-4.05c5.35,2.57,10.8,3.85,16.36,3.85,3.1,0,6.58-.37,10.43-1.12,3.85-.75,7.51-1.82,10.99-3.21,2.99,2.89,7.08,4.33,12.27,4.33h4.01c5.35,0,9.2-1.18,11.55-3.53,2.94,2.35,6.74,3.53,11.39,3.53h5.94c5.35,0,9.2-1.18,11.55-3.53,2.94,2.35,6.74,3.53,11.39,3.53h304.41v-37.62h-6.34v31.69Zm-379.25-.8c-2.99.53-5.75.8-8.26.8-4.33,0-8.66-.96-12.99-2.89.27-1.12.53-2.91.8-5.38.48-4.01,1.04-7.43,1.69-10.27.64-2.83,1.7-5.31,3.17-7.42s3.49-3.17,6.06-3.17c2.83,0,5.6,1.18,8.3,3.53,2.7,2.35,4.95,5.54,6.74,9.54,1.79,4.01,2.82,8.34,3.09,13-2.73.96-5.59,1.71-8.58,2.25Zm354.47.8h-14.92c-3.21-.91-5.76-2.59-7.66-5.05-1.9-2.46-2.85-5.37-2.85-8.74,0-2.83.68-5.4,2.05-7.7,1.36-2.3,3.27-4.12,5.73-5.45,2.46-1.34,5.21-2.01,8.26-2.01,2.83,0,5.96.61,9.39,1.84v27.11Z"/>
      <path class="cls-1" d="m1645.24,1091.5c-.73-.76-1.65-1.14-2.76-1.14s-2.03.38-2.76,1.14c-.73.76-1.1,1.71-1.1,2.87s.37,2.13,1.1,2.91c.73.78,1.65,1.17,2.76,1.17s2.03-.39,2.76-1.17c.73-.78,1.1-1.75,1.1-2.91s-.37-2.12-1.1-2.87Z"/>
      <path class="cls-1" d="m1629.53,1091.5c-.73.76-1.1,1.71-1.1,2.87s.36,2.13,1.1,2.91c.73.78,1.65,1.17,2.76,1.17s2.03-.39,2.76-1.17,1.1-1.75,1.1-2.91-.37-2.12-1.1-2.87c-.73-.76-1.65-1.14-2.76-1.14s-2.03.38-2.76,1.14Z"/>
      <path class="cls-1" d="m455.69,1014.84c-6.9,0-12.31-2.08-16.33-6.2-3.97-4.12-6-9.92-6-17.52v-78.35h44.71v-41.33h-44.71v-42.19h-9.82c-23.3,0-42.19,18.89-42.19,42.19h-27.69v41.33h27.69v79.05c0,21.34,5.91,37.41,17.66,48.18,11.76,10.77,28.23,16.18,49.37,16.18,7.99,0,15.68-.94,23.17-2.83,7.44-1.89,13.79-4.72,19.15-8.54l-13.99-36.67c-5.81,4.47-12.8,6.7-21.04,6.7Z"/>
      <path class="cls-1" d="m840.76,894.86c-4.42-5.41-9.63-9.87-15.53-13.4-11.21-6.7-24.71-10.02-40.49-10.02-16.92,0-32.15,3.82-45.7,11.51-13.55,7.69-24.27,18.41-32.15,32.15-7.89,13.8-11.86,30.02-11.86,48.68s3.97,35.28,11.86,49.03c7.89,13.8,18.61,24.46,32.15,32.01,13.55,7.59,28.78,11.36,45.7,11.36,15.09,0,28.33-3.32,39.65-10.02,5.26-3.08,9.92-6.9,14.04-11.46v86.14h52v-246.72h-49.67v20.74Zm-7.49,95.47c-4.12,7.44-9.63,13.15-16.52,17.17-6.9,3.97-14.59,6-23.02,6s-16.43-2.03-23.32-6c-6.9-4.02-12.41-9.73-16.52-17.17-4.12-7.44-6.15-16.28-6.15-26.55s2.03-19.3,6.15-26.65c4.12-7.34,9.63-13,16.52-17.02,6.9-3.97,14.69-6,23.32-6s16.13,2.03,23.02,6c6.9,4.02,12.41,9.68,16.52,17.02,4.07,7.34,6.15,16.23,6.15,26.65s-2.08,19.1-6.15,26.55Z"/>
      <path class="cls-1" d="m1395.22,963.49c0-10.67,1.69-19.45,5.01-26.35,3.32-6.9,7.99-12.06,13.99-15.53,6-3.42,12.8-5.16,20.34-5.16,10.92,0,19.3,3.47,25.21,10.37,5.86,6.85,8.83,17.57,8.83,32v38.31h52v-33.64c0-10.67,1.64-19.45,5.01-26.35,3.32-6.9,7.99-12.06,13.99-15.53,6-3.42,12.75-5.16,20.34-5.16,10.87,0,19.3,3.47,25.31,10.37,6,6.85,9.03,17.57,9.03,32v38.31h10.32c16.28,0,31.01,6.6,41.68,17.27v-63.62c0-18.21-3.18-33.15-9.48-44.81-6.35-11.71-15.04-20.34-26-26-11.02-5.71-23.67-8.53-37.86-8.53-17.12,0-32.3,4.12-45.5,12.36-7.59,4.71-13.94,10.32-19.1,16.92-4.12-6.8-9.43-12.41-15.93-16.77-12.36-8.34-26.75-12.5-43.17-12.5-14.69,0-27.74,3.18-39.2,9.53-6.6,3.67-12.36,8.29-17.17,13.94v-20.79h-49.67v123.01h52v-33.64Z"/>
      <path class="cls-1" d="m1221.85,1056.18h424.45c0-23.02-18.66-41.68-41.68-41.68h-381.43c-3.47,0-6.8-.2-9.92-.65-6.6-.84-12.6-2.58-17.91-5.21-7.89-3.87-13.99-9.53-18.36-16.97-2.33-4.07-4.07-8.44-5.11-13.2h135.67c.2-2.23.45-4.62.69-7.15.2-2.58.3-4.86.3-6.85,0-19.35-4.12-35.98-12.31-49.87-8.24-13.89-19.4-24.56-33.54-32.01-14.09-7.44-29.92-11.16-47.49-11.16s-34.59,3.97-49.03,11.86c-14.44,7.89-25.85,18.76-34.19,32.65-8.34,13.89-12.5,29.87-12.5,47.84s4.22,33.64,12.7,47.54c8.44,13.89,20.39,24.86,35.83,32.85,13.25,6.85,28.33,10.77,45.25,11.71h0c2.78.2,5.66.3,8.58.3Zm-45.65-123.21c3.77-7,9.03-12.45,15.83-16.33,6.75-3.92,14.59-5.85,23.52-5.85s16.67,1.94,23.32,5.85c6.65,3.87,11.86,9.28,15.68,16.18,2.53,4.57,4.17,9.68,5.01,15.33h-88.33c.84-5.61,2.48-10.67,4.96-15.18Z"/>
      <path class="cls-1" d="m586.74,871.46h-1.34v-.03h-25.64v.03h-51.38v41.33h77.95c.32,0,.62.02.93.03,19.99.27,36.35,15.73,38.03,35.33h-39.9c-18.21,0-33,2.28-44.31,6.8-11.36,4.57-19.65,10.87-24.86,18.86-5.21,7.99-7.84,17.32-7.84,28.04s2.68,19.45,7.99,27.64c5.36,8.24,13,14.74,23.02,19.5,10.02,4.81,22.03,7.19,36.03,7.19,15.78,0,28.68-3.03,38.66-9.03,4.43-2.65,8.19-5.89,11.39-9.63v15.98h41.33v-102.02c0-44.12-35.92-80.01-80.06-80.01Zm38.73,128.04c-3.12,6.64-7.64,11.86-13.72,15.49-6.9,4.12-14.69,6.15-23.32,6.15-9.13,0-16.28-1.93-21.54-5.81-5.21-3.92-7.84-9.18-7.84-15.88,0-6,2.28-10.97,6.85-14.98,4.56-4.02,12.95-6,25.16-6h34.41v21.03Z"/>
      <path class="cls-1" d="m1015.82,995.94l-50.36-121.83h-53.69l77.65,180.88-.65,1.53c-3.57,7.99-7.49,13.71-11.81,17.17-4.37,3.44-10.16,5.17-17.52,5.17h-47.67v41.97h49.32c10.91,0,20.85-1.65,29.87-4.97,8.99-3.36,17.22-9.11,24.66-17.35,7.45-8.24,14.05-19.56,19.86-34l81.03-190.4h-50.03l-50.66,121.83Z"/>
    </g>
  </g>
</svg>