<svg width="82" height="82" viewBox="0 0 82 82" fill="none" xmlns="http://www.w3.org/2000/svg">
<circle cx="41" cy="41" r="41" fill="#C19A36" fill-opacity="0.3"/>
<circle cx="40.8066" cy="41.967" r="30.75" fill="#C19A36" fill-opacity="0.38"/>
<circle cx="40.8065" cy="40.8066" r="19.9198" fill="url(#paint0_linear_60_977)"/>
<path d="M40.8688 44.5182C42.6697 44.5182 44.1295 43.0584 44.1295 41.2575C44.1295 39.4567 42.6697 37.9968 40.8688 37.9968C39.068 37.9968 37.6082 39.4567 37.6082 41.2575C37.6082 43.0584 39.068 44.5182 40.8688 44.5182Z" stroke="white" stroke-width="1.5" stroke-miterlimit="10" stroke-linecap="round" stroke-linejoin="round"/>
<path d="M30 42.2155V40.3025C30 39.1722 30.9239 38.2375 32.0651 38.2375C34.0324 38.2375 34.8367 36.8463 33.8476 35.1399C33.2824 34.1617 33.6193 32.89 34.6084 32.3248L36.4887 31.2488C37.3474 30.738 38.456 31.0423 38.9668 31.9009L39.0864 32.1074C40.0646 33.8138 41.6732 33.8138 42.6623 32.1074L42.7818 31.9009C43.2927 31.0423 44.4013 30.738 45.2599 31.2488L47.1402 32.3248C48.1293 32.89 48.4663 34.1617 47.9011 35.1399C46.912 36.8463 47.7163 38.2375 49.6836 38.2375C50.8139 38.2375 51.7487 39.1613 51.7487 40.3025V42.2155C51.7487 43.3458 50.8248 44.2806 49.6836 44.2806C47.7163 44.2806 46.912 45.6718 47.9011 47.3782C48.4663 48.3673 48.1293 49.628 47.1402 50.1932L45.2599 51.2693C44.4013 51.7801 43.2927 51.4758 42.7818 50.6171L42.6623 50.4106C41.6841 48.7042 40.0755 48.7042 39.0864 50.4106L38.9668 50.6171C38.456 51.4758 37.3474 51.7801 36.4887 51.2693L34.6084 50.1932C33.6193 49.628 33.2824 48.3564 33.8476 47.3782C34.8367 45.6718 34.0324 44.2806 32.0651 44.2806C30.9239 44.2806 30 43.3458 30 42.2155Z" stroke="white" stroke-width="1.5" stroke-miterlimit="10" stroke-linecap="round" stroke-linejoin="round"/>
<defs>
<linearGradient id="paint0_linear_60_977" x1="40.8065" y1="20.8868" x2="41.0303" y2="66.0981" gradientUnits="userSpaceOnUse">
<stop stop-color="#C19A36"/>
<stop offset="1" stop-color="#A17606"/>
</linearGradient>
</defs>
</svg>
